<?xml version="1.0" encoding="UTF-8" standalone="no"?>
<!DOCTYPE svg PUBLIC "-//W3C//DTD SVG 1.1//EN"
 "http://www.w3.org/Graphics/SVG/1.1/DTD/svg11.dtd">
<!-- Generated by graphviz version 2.43.0 (0)
 -->
<!-- Title: G Pages: 1 -->
<svg width="470pt" height="204pt"
 viewBox="0.00 0.00 470.18 204.00" xmlns="http://www.w3.org/2000/svg" xmlns:xlink="http://www.w3.org/1999/xlink">
<g id="graph0" class="graph" transform="scale(1 1) rotate(0) translate(4 200)">
<title>G</title>
<polygon fill="white" stroke="transparent" points="-4,4 -4,-200 466.18,-200 466.18,4 -4,4"/>
<g id="clust1" class="cluster">
<title>cluster_Global</title>
<path fill="none" stroke="gray" d="M304.18,-8C304.18,-8 442.18,-8 442.18,-8 448.18,-8 454.18,-14 454.18,-20 454.18,-20 454.18,-176 454.18,-176 454.18,-182 448.18,-188 442.18,-188 442.18,-188 304.18,-188 304.18,-188 298.18,-188 292.18,-182 292.18,-176 292.18,-176 292.18,-20 292.18,-20 292.18,-14 298.18,-8 304.18,-8"/>
<text text-anchor="middle" x="373.18" y="-175.2" font-family="Times,serif" font-size="11.00" fill="gray">Global</text>
</g>
<g id="clust2" class="cluster">
<title>cluster_\PTK</title>
<path fill="none" stroke="gray" d="M312.18,-16C312.18,-16 434.18,-16 434.18,-16 440.18,-16 446.18,-22 446.18,-28 446.18,-28 446.18,-148 446.18,-148 446.18,-154 440.18,-160 434.18,-160 434.18,-160 312.18,-160 312.18,-160 306.18,-160 300.18,-154 300.18,-148 300.18,-148 300.18,-28 300.18,-28 300.18,-22 306.18,-16 312.18,-16"/>
<text text-anchor="middle" x="373.18" y="-147.2" font-family="Times,serif" font-size="11.00" fill="gray">PTK</text>
</g>
<g id="clust3" class="cluster">
<title>cluster_\PTK\Mercury</title>
<path fill="none" stroke="gray" d="M320.18,-24C320.18,-24 426.18,-24 426.18,-24 432.18,-24 438.18,-30 438.18,-36 438.18,-36 438.18,-120 438.18,-120 438.18,-126 432.18,-132 426.18,-132 426.18,-132 320.18,-132 320.18,-132 314.18,-132 308.18,-126 308.18,-120 308.18,-120 308.18,-36 308.18,-36 308.18,-30 314.18,-24 320.18,-24"/>
<text text-anchor="middle" x="373.18" y="-119.2" font-family="Times,serif" font-size="11.00" fill="gray">Mercury</text>
</g>
<g id="clust4" class="cluster">
<title>cluster_\PTK\Mercury\Logger</title>
<path fill="none" stroke="gray" d="M328.18,-32C328.18,-32 418.18,-32 418.18,-32 424.18,-32 430.18,-38 430.18,-44 430.18,-44 430.18,-92 430.18,-92 430.18,-98 424.18,-104 418.18,-104 418.18,-104 328.18,-104 328.18,-104 322.18,-104 316.18,-98 316.18,-92 316.18,-92 316.18,-44 316.18,-44 316.18,-38 322.18,-32 328.18,-32"/>
<text text-anchor="middle" x="373.18" y="-91.2" font-family="Times,serif" font-size="11.00" fill="gray">Logger</text>
</g>
<!-- \\PTK\\Mercury\\Logger\\StdOutLogger -->
<g id="node1" class="node">
<title>\\PTK\\Mercury\\Logger\\StdOutLogger</title>
<polygon fill="none" stroke="black" points="422.18,-76 324.18,-76 324.18,-40 422.18,-40 422.18,-76"/>
<text text-anchor="middle" x="373.18" y="-55.2" font-family="Courier,monospace" font-size="11.00">StdOutLogger</text>
</g>
<!-- \\Psr\\Log\\LoggerInterface -->
<g id="node2" class="node">
<title>\\Psr\\Log\\LoggerInterface</title>
<ellipse fill="none" stroke="black" cx="126.09" cy="-58" rx="126.18" ry="18"/>
<text text-anchor="middle" x="126.09" y="-54.3" font-family="Times,serif" font-size="14.00" fill="gray">\Psr\Log\LoggerInterface</text>
</g>
<!-- \\PTK\\Mercury\\Logger\\StdOutLogger&#45;&gt;\\Psr\\Log\\LoggerInterface -->
<g id="edge1" class="edge">
<title>\\PTK\\Mercury\\Logger\\StdOutLogger&#45;&gt;\\Psr\\Log\\LoggerInterface</title>
<path fill="none" stroke="black" stroke-dasharray="1,5" d="M324.05,-58C306.04,-58 284.57,-58 262.54,-58"/>
<polygon fill="none" stroke="black" points="262.39,-54.5 252.39,-58 262.39,-61.5 262.39,-54.5"/>
</g>
</g>
</svg>
